# xmcd CD database file
#
# Track frame offsets:
#	150
#	18684
#	37592
#	58176
#	76835
#	95330
#	113226
#	130166
#	151203
#	169963
#	185811
#	204246
#	223232
#	241974
#	262904
#	284724
#	304697
#
# Disc length: 4258 seconds
#
# Revision: 0
# Processed by: cddbd v1.5.2PL0 Copyright (c) Steve Scherf et al.
# Submitted via: CDex 1.70beta2
#
DISCID=ed10a011
DTITLE=Porfi Jimenez - 17 Grandes exitos remasterizados
DYEAR=2005
DGENRE=Merengue
TTITLE0=Culu cucu
TTITLE1=Llevame contigo
TTITLE2=Ella me vacila
TTITLE3=Mete y saca
TTITLE4=El baile del palo
TTITLE5=Dolores
TTITLE6=La hierba se movia
TTITLE7=La negra celina
TTITLE8=El muerto vivo
TTITLE9=La mujer de Antonio
TTITLE10=Bula bula
TTITLE11=Me duele el corazon
TTITLE12=Merequetengue pa´ti
TTITLE13=Muevete muevete
TTITLE14=Se hunde el barco
TTITLE15=Si no estas conmigo
TTITLE16=Sammy Sosa
EXTD=YEAR: 2005
EXTT0=
EXTT1=
EXTT2=
EXTT3=
EXTT4=
EXTT5=
EXTT6=
EXTT7=
EXTT8=
EXTT9=
EXTT10=
EXTT11=
EXTT12=
EXTT13=
EXTT14=
EXTT15=
EXTT16=
PLAYORDER=
